/* XPM */
const static char * scope2_xpm[] = {
"32 32 5 1",
" 	c #000000",
".	c #FFFFFF",
"+	c #C0C0C0",
"@	c #00FF00",
"#	c #FF0000",
"                                ",
" .............................. ",
" .............................+ ",
" ..++++++++++++++++++++++++++++ ",
" ..+++++++++++++++++++++++++.++ ",
" ..++                      ..++ ",
" ..++          @        @  ..++ ",
" ..++ @     @  @  @     @  ..++ ",
" ..++ @     @  @  @     @  ..++ ",
" ..++ @     @  @  @  @  @  ..++ ",
" ..++ @  @  @  @  @  @  @  ..++ ",
" ..++ @  @  @ @@ @@  @ @@  ..++ ",
" ..++@ @ @  @ @@ @ @ @ @@  ..++ ",
" ..++@ @ @  @ @ @@ @ @ @@  ..++ ",
" ..++@ @ @@ @ @ @@ @ @ @@  ..++ ",
" ..++######################..++ ",
" ..++  @ @@ @@@ @@ @ @ @@ @..++ ",
" ..++  @@ @@ @@ @  @@ @ @ @..++ ",
" ..++  @@ @@ @@ @  @@ @ @ @..++ ",
" ..++  @@ @@ @  @  @@ @ @@ ..++ ",
" ..++   @ @@ @      @ @  @ ..++ ",
" ..++   @ @@ @      @ @  @ ..++ ",
" ..++   @  @ @      @ @  @ ..++ ",
" ..++   @  @ @      @ @  @ ..++ ",
" ..++      @        @ @    ..++ ",
" ..++      @               ..++ ",
" ..++                      ..++ ",
" ..+.........................++ ",
" ............................++ ",
" .+++++++++++++++++++++++++++++ ",
" ++++++++++++++++++++++++++++++ ",
"                                "};
